<?xml version="1.0" encoding="utf-8"?>
<!-- Generator: Adobe Illustrator 16.0.0, SVG Export Plug-In . SVG Version: 6.00 Build 0)  -->
<!DOCTYPE svg PUBLIC "-//W3C//DTD SVG 1.1//EN" "http://www.w3.org/Graphics/SVG/1.1/DTD/svg11.dtd">
<svg version="1.1" id="Layer_1" xmlns="http://www.w3.org/2000/svg" xmlns:xlink="http://www.w3.org/1999/xlink" x="0px" y="0px"
	 width="635.222px" height="122.182px" viewBox="16.941 245.239 635.222 122.182"
	 enable-background="new 16.941 245.239 635.222 122.182" xml:space="preserve">
<g id="eI9Tlv.tif">
	<g>
		<path fill="#1D1C1C" d="M76.272,276.657c3.478,1.479,6.63,2.55,9.525,4.101c7.496,4.014,11.009,10.388,10.426,18.903
			c-0.543,7.913-4.956,12.988-12.007,16.065c-0.448,0.195-0.89,0.405-1.672,0.762c1.178,0.543,2.069,0.982,2.982,1.371
			c18.511,7.884,15.849,32.091,3.953,40.227c-6,4.104-12.617,6.619-19.706,7.133c-10.61,0.77-21.274,0.859-31.918,1.088
			c-6.907,0.147-13.819,0.027-20.914,0.027c0-30.466,0-60.819,0-91.376c0.54-0.057,1.166-0.18,1.791-0.18
			c12.578-0.007,25.157-0.095,37.733,0.054c4.73,0.056,9.472,0.528,14.172,1.104c1.64,0.201,2.637-0.022,3.561-1.347
			c0.854-1.223,1.899-2.313,2.843-3.442c-3.902-8.979,1.941-18.999,11.742-20.219c0.33-0.041,0.716-0.155,0.989-0.036
			c3.57,1.558,5.166-0.952,7.032-3.213c0.875-1.06,1.708-3.481,3.563-1.942c1.871,1.553-0.542,2.645-1.237,3.871
			c-0.283,0.499-0.715,0.922-1.119,1.34c-1.426,1.476-2.287,2.777-1.244,5.161c0.711,1.622,0.369,3.978-0.156,5.819
			c-1.842,6.466-9.087,12.027-15.438,10.96C78.321,272.41,78.186,275.532,76.272,276.657z M95.066,256.139
			c-0.546-1.868-1.847-2.874-3.704-3.247c-0.542-0.16-1.086-0.464-1.626-0.458c-6.059,0.065-12.803,6.734-12.975,12.781
			c-0.104,3.691,2.268,6.129,6.001,6.167c5.401,0.056,11.245-4.782,12.575-10.687C95.66,259.27,95.179,257.662,95.066,256.139z
			 M54.584,327.761c0,4.749,0,9.342,0,14.014c3.812,0.148,7.297-0.175,9.346-3.686c1.401-2.402,1.316-5.027-0.355-7.305
			C61.335,327.73,58.045,327.516,54.584,327.761z M54.472,311.773c3.253,0.291,6.118,0.039,7.777-2.943
			c1.132-2.035,1.014-4.232-0.54-6.041c-1.9-2.214-4.46-2.422-7.237-2.13C54.472,304.458,54.472,307.994,54.472,311.773z"/>
		<path fill="#1D1C1C" d="M269.413,366.333c0-30.615,0-60.986,0-91.448c0.692-0.043,1.261-0.111,1.829-0.111
			c13.333,0.007,26.668-0.104,39.999,0.078c8.348,0.113,16.625,1.111,24.387,4.493c8.153,3.552,13.255,9.357,13.221,18.736
			c-0.026,7.64-3.456,13.209-10.21,16.741c-1.092,0.571-2.225,1.064-3.537,1.688c1.05,0.481,1.853,0.886,2.682,1.225
			c18.852,7.71,16.376,32.365,3.909,40.611c-5.981,3.956-12.537,6.516-19.55,6.883c-13.876,0.728-27.787,0.793-41.685,1.092
			C276.816,366.4,273.171,366.333,269.413,366.333z M307.18,327.781c0,4.852,0,9.378,0,13.995c3.795,0.143,7.268-0.178,9.32-3.677
			c1.409-2.402,1.331-5.021-0.342-7.299C313.928,327.763,310.668,327.492,307.18,327.781z M307.089,311.799
			c3.317,0.248,6.192-0.045,7.811-3.087c1.057-1.988,0.912-4.113-0.566-5.867c-1.901-2.255-4.475-2.482-7.244-2.191
			C307.089,304.463,307.089,308.021,307.089,311.799z"/>
		<path fill="#1E1E1E" d="M496.337,293.217c0,24.399,0,48.611,0,73.118c-1.479,0-2.865,0-4.251,0
			c-6.914-0.001-13.829-0.053-20.742,0.037c-1.674,0.022-2.694-0.461-3.656-1.88c-6.075-8.963-12.256-17.855-18.401-26.769
			c-0.488-0.708-0.99-1.405-2.031-1.914c0,10.095,0,20.19,0,30.403c-9.146,0-18.016,0-27.018,0c0-24.322,0-48.529,0-73.021
			c0.772-0.053,1.562-0.153,2.354-0.155c7.58-0.012,15.162,0.035,22.741-0.042c1.595-0.016,2.562,0.478,3.471,1.814
			c6.085,8.956,12.259,17.851,18.41,26.763c0.504,0.73,1.046,1.434,1.991,2.723c0-10.737,0-20.816,0-31.079
			C478.357,293.217,487.216,293.217,496.337,293.217z"/>
		<path fill="#1E1E1E" d="M622.184,339.793c-5.198,0-10.073,0-15.249,0c0,8.815,0,17.594,0,26.415c-10.177,0-20.056,0-30.06,0
			c0-24.344,0-48.562,0-72.979c9.893,0,19.764,0,29.949,0c0,7.379,0,14.824,0,22.401c5.188,0,10.062,0,15.188,0
			c0-7.419,0-14.795,0-22.384c10.176,0,20.107,0,30.151,0c0,24.306,0,48.534,0,72.925c-9.895,0-19.773,0-29.979,0
			C622.184,357.461,622.184,348.694,622.184,339.793z"/>
		<path fill="#1E1D1E" d="M191.962,292.907c14.781,0.708,29.402-1.194,43.84,1.5c4.012,0.749,8.1,2.161,11.642,4.17
			c12.301,6.98,13.672,24.385,2.896,33.571c-0.62,0.528-1.24,1.056-1.961,1.669c5.505,10.76,10.953,21.408,16.547,32.343
			c-0.887,0.072-1.494,0.166-2.1,0.167c-9.081,0.009-18.162-0.037-27.242,0.046c-1.645,0.016-2.486-0.419-3.169-1.993
			c-2.853-6.569-5.871-13.065-8.84-19.584c-0.327-0.717-0.726-1.401-1.542-2.008c0,7.76,0,15.519,0,23.409c-10.15,0-20.03,0-30.07,0
			C191.962,341.921,191.962,317.642,191.962,292.907z M222.092,325.314c3.302,0.181,6.359,0.35,8.243-2.669
			c1.186-1.9,1.207-4.021-0.111-5.867c-2.026-2.84-5.025-2.667-8.132-2.396C222.092,318.05,222.092,321.571,222.092,325.314z"/>
		<path fill="#1D1C1D" d="M102.075,366.173c3.395-8.897,6.688-17.521,9.975-26.145c5.692-14.937,11.413-29.862,17.029-44.827
			c0.639-1.702,1.466-2.233,3.244-2.212c8.161,0.095,16.324,0.062,24.486,0.021c1.284-0.007,2.103,0.184,2.637,1.595
			c8.928,23.583,17.919,47.141,26.892,70.708c0.084,0.223,0.1,0.472,0.181,0.869c-10.769,0-21.457,0-32.345,0
			c-0.833-3.054-1.682-6.162-2.545-9.32c-5.585,0-11.069,0-16.826,0c-0.914,3.016-1.845,6.088-2.823,9.312
			C122.124,366.173,112.25,366.173,102.075,366.173z M146.793,338.249c-1.067-4.864-2.092-9.535-3.117-14.206
			c-0.175,0.002-0.351,0.004-0.526,0.006c-1.018,4.683-2.035,9.367-3.085,14.2C142.418,338.249,144.394,338.249,146.793,338.249z"/>
		<path fill="#1D1C1C" d="M412.533,342.994c0,8,0,15.482,0,23.15c-17.996,0-35.926,0-53.974,0c0-24.259,0-48.464,0-72.893
			c17.46,0,34.882,0,52.459,0c0,7.979,0,15.926,0,24.188c-7.375,0-14.733,0-22.253,0c0,1.426,0,2.542,0,3.914
			c5.87,0,11.744,0,17.827,0c0,5.923,0,11.597,0,17.488c-5.885,0-11.764,0-17.814,0c0,1.407,0,2.603,0,4.151
			C396.611,342.994,404.468,342.994,412.533,342.994z"/>
		<path fill="#1E1D1D" d="M568.042,322.654c-4.358-1.258-8.349-2.669-12.455-3.523c-4.423-0.92-8.935-0.908-13.319,0.57
			c-5.374,1.812-8.33,5.553-8.344,10.565c-0.014,4.996,2.939,8.929,8.342,10.539c7.959,2.372,15.631,0.871,23.111-2.202
			c0.908-0.373,1.787-0.816,3.062-1.403c0,2.458,0,4.658,0,6.857c0,5.666,0.059,11.333-0.062,16.998
			c-0.018,0.85-0.672,2.165-1.367,2.451c-15.262,6.288-38.334,5.898-52.404-7.843c-18.858-18.421-12.478-49.625,12.436-59.947
			c12.794-5.301,25.789-4.869,38.79-0.529c1.66,0.555,2.289,1.385,2.262,3.226C567.976,306.487,568.042,314.565,568.042,322.654z"/>
		<path d="M94.441,256.764c-0.003,0.573,0.161,1.22-0.05,1.703c-0.303,0.694-0.774,1.618-1.369,1.797
			c-0.597,0.18-1.588-0.255-2.134-0.732c-1.88-1.642-1.885-4.083-0.153-6.015C92.594,253.89,93.896,254.896,94.441,256.764z"/>
	</g>
</g>
</svg>
